<?xml version="1.0" encoding="utf-8"?>
<!-- Generator: Adobe Illustrator 21.0.2, SVG Export Plug-In . SVG Version: 6.00 Build 0)  -->
<svg version="1.1" id="Layer_1" xmlns="http://www.w3.org/2000/svg" xmlns:xlink="http://www.w3.org/1999/xlink" x="0px" y="0px"
	 viewBox="0 0 52 49" style="enable-background:new 0 0 52 49;" xml:space="preserve">
<style type="text/css">
	
		.st0{clip-path:url(#SVGID_2_);fill:none;stroke:#FFFFFF;stroke-width:4;stroke-linecap:round;stroke-linejoin:round;stroke-miterlimit:10;}
	
		.st1{clip-path:url(#SVGID_4_);fill:none;stroke:#FFFFFF;stroke-width:4;stroke-linecap:round;stroke-linejoin:round;stroke-miterlimit:10;}
	.st2{fill:none;stroke:#FFFFFF;stroke-width:2;stroke-linecap:square;stroke-linejoin:round;stroke-miterlimit:10;}
	.st3{fill:none;stroke:#FFFFFF;stroke-width:2;stroke-linecap:round;stroke-linejoin:round;stroke-miterlimit:10;}
</style>
<g>
	<defs>
		<rect id="SVGID_1_" y="16" width="52" height="33"/>
	</defs>
	<clipPath id="SVGID_2_">
		<use xlink:href="#SVGID_1_"  style="overflow:visible;"/>
	</clipPath>
	<rect y="16" class="st0" width="52" height="33"/>
</g>
<g>
	<defs>
		<rect id="SVGID_3_" y="5" width="52" height="13"/>
	</defs>
	<clipPath id="SVGID_4_">
		<use xlink:href="#SVGID_3_"  style="overflow:visible;"/>
	</clipPath>
	<rect y="5" class="st1" width="52" height="13"/>
</g>
<line class="st2" x1="10" y1="1" x2="10" y2="6"/>
<line class="st2" x1="42" y1="1" x2="42" y2="6"/>
<line class="st3" x1="8" y1="22" x2="4.5" y2="25.5"/>
<line class="st3" x1="18" y1="22" x2="14.5" y2="25.5"/>
<line class="st3" x1="28" y1="22" x2="24.5" y2="25.5"/>
<line class="st3" x1="38" y1="22" x2="34.5" y2="25.5"/>
<line class="st3" x1="48" y1="22" x2="44.5" y2="25.5"/>
<line class="st3" x1="8" y1="30" x2="4.5" y2="33.5"/>
<line class="st3" x1="18" y1="30" x2="14.5" y2="33.5"/>
<line class="st3" x1="28" y1="30" x2="24.5" y2="33.5"/>
<line class="st3" x1="38" y1="30" x2="34.5" y2="33.5"/>
<line class="st3" x1="34" y1="30" x2="37.5" y2="33.5"/>
<line class="st3" x1="48" y1="30" x2="44.5" y2="33.5"/>
<line class="st3" x1="8" y1="38" x2="4.5" y2="41.5"/>
<line class="st3" x1="18" y1="38" x2="14.5" y2="41.5"/>
<line class="st3" x1="28" y1="38" x2="24.5" y2="41.5"/>
<line class="st3" x1="24" y1="38" x2="27.5" y2="41.5"/>
<line class="st3" x1="38" y1="38" x2="34.5" y2="41.5"/>
<line class="st3" x1="48" y1="38" x2="44.5" y2="41.5"/>
</svg>
