<?xml version="1.0" encoding="utf-8"?>
<!-- Generator: Adobe Illustrator 21.0.2, SVG Export Plug-In . SVG Version: 6.00 Build 0)  -->
<svg version="1.1" id="Layer_1" xmlns="http://www.w3.org/2000/svg" xmlns:xlink="http://www.w3.org/1999/xlink" x="0px" y="0px"
	 viewBox="0 0 47 56" style="enable-background:new 0 0 47 56;" xml:space="preserve">
<style type="text/css">
	
		.st0{clip-path:url(#SVGID_2_);fill:none;stroke:#FFFFFF;stroke-width:4;stroke-linecap:round;stroke-linejoin:round;stroke-miterlimit:10;}
	.st1{fill:none;stroke:#FFFFFF;stroke-width:2;stroke-linecap:round;stroke-linejoin:round;stroke-miterlimit:10;}
	.st2{fill:none;stroke:#FFFFFF;stroke-width:2;stroke-linecap:square;stroke-linejoin:round;stroke-miterlimit:10;}
</style>
<g>
	<defs>
		<path id="SVGID_1_" d="M37.4,14L39,48.1c0.2,4.4-3.2,7.9-7.5,7.9H12.3c-4.4,0-7.8-3.5-7.5-7.9l1.6-31.6"/>
	</defs>
	<clipPath id="SVGID_2_">
		<use xlink:href="#SVGID_1_"  style="overflow:visible;"/>
	</clipPath>
	<path class="st0" d="M37.4,14L39,48.1c0.2,4.4-3.2,7.9-7.5,7.9H12.3c-4.4,0-7.8-3.5-7.5-7.9l1.6-31.6"/>
</g>
<path class="st1" d="M36.6,21.1c0,0,5.4-3.8,8-0.3c2.7,3.6,0.9,13.6-0.6,14.8c-1.5,1.2-6.1,1.2-6.1,1.2"/>
<line class="st2" x1="29" y1="23" x2="31" y2="49"/>
<line class="st2" x1="15" y1="23" x2="13" y2="49"/>
<line class="st2" x1="22" y1="24" x2="22" y2="48"/>
<path class="st1" d="M10.9,14.4c0.6,1.5,2,2.6,3.8,2.6c1.4,0,2.7-0.8,3.4-1.9c0.7,0.8,1.8,1.3,2.9,1.3c0.7,0,1.3-0.2,1.8-0.4
	c1.4,1.9,3.6,3.1,6.2,3.1c3.5,0,6.5-2.4,7.4-5.6c2.1-0.7,3.6-2.7,3.6-5C40,5.4,37.6,3,34.7,3c-1.2,0-2.3,0.4-3.2,1.1
	c-0.8-0.3-1.6-0.4-2.5-0.4c-1.5,0-2.9,0.4-4.1,1.2c-0.9-1.5-2.6-2.5-4.5-2.5c-1.9,0-3.6,1-4.5,2.5C15.2,2.6,13.1,1,10.7,1
	C7.7,1,5.3,3.4,5.3,6.3c0,0,0,0.1,0,0.1C2.9,6.9,1,9.1,1,11.7C1,14.6,3.4,17,6.3,17C8.3,17,10,16,10.9,14.4z"/>
</svg>
