<?xml version="1.0" encoding="utf-8"?>
<!-- Generator: Adobe Illustrator 21.0.0, SVG Export Plug-In . SVG Version: 6.00 Build 0)  -->
<svg version="1.1" id="Layer_1" xmlns="http://www.w3.org/2000/svg" xmlns:xlink="http://www.w3.org/1999/xlink" x="0px" y="0px"
	 viewBox="0 0 498.9 143.5" style="enable-background:new 0 0 498.9 143.5;" xml:space="preserve">
<style type="text/css">
	.st0{fill:#3C5997;}
	.st1{fill:#FFFFFF;}
</style>
<g>
	<g>
		<path style="fill: #FFFFFF;" d="M490.7,49.1c0-4.5-1.5-8-4.5-10.6c-3-2.6-5.7-3.9-8.3-3.9c-2.7,0-4.7,0.6-5.9,1.8c-1.3,1.2-1.9,3.3-1.9,6.4
			c0,5.1,0.6,9.2,1.9,12.3c1.3,3.1,4.2,4.6,8.7,4.6c3.2,0,5.6-1.2,7.3-3.5C489.8,54,490.7,51.6,490.7,49.1 M498.9,45.4
			c0,2.7-0.9,5.6-2.6,8.9c-1.7,3.3-3.8,5.8-6.2,7.7c-2.4,1.8-5.4,4-9,6.5c-3.6,2.5-5.6,3.7-6.2,3.7l-15.2-12c-0.1-0.3-0.1-2.3-0.3-6
			c-0.1-3.7-0.2-7.9-0.2-12.5V16.9c-1-2.4-1.8-4.2-2.4-5.3c-0.6-1.1-1.2-2.2-1.7-3.3c0-0.4,1.4-1.2,4.1-2.6c2.7-1.3,5.3-2.8,7.8-4.5
			h2.1v30.4h1.7c0.1-0.1,1.8-1.4,5-4.1c3.2-2.7,5.1-4,5.8-4c4,0,7.9,2.3,11.6,6.9C497,35,498.9,40,498.9,45.4z M447.5,57.1
			c0,1.9,0.8,3.3,2.4,4.2c1.6,0.9,2.5,1.8,2.5,2.7c0,0.6-1.2,1.9-3.7,3.9c-2.5,2.1-3.8,3.1-4.1,3.1c-2,0-3.9-1.4-5.6-4.3
			c-1.4-3-2.1-4.6-2.3-4.8c-1.4,0.6-3.9,2.3-7.3,5c-3.4,2.7-5.5,4.1-6.3,4.1c-1,0-3.4-1.3-7.3-3.8c-3.9-2.5-5.8-5.1-5.8-7.7v-17
			c-0.1-0.3-0.2-0.8-0.3-1.5c-0.1-0.7-0.1-1.2-0.1-1.7c0-0.7,0-1.5,0-2.3c0-0.8,0-1.3,0-1.4c-0.2-1-1-2.3-2.4-3.7
			c-1.4-1.5-2.1-2.4-2.1-2.9c1.5-1.6,3-3.2,4.5-4.7c1.5-1.6,2.6-2.3,3.2-2.3c0.4,0,0.9,0.2,1.2,0.6c0.4,0.4,0.8,0.8,1.2,1.1
			c2.3,1.6,3.8,3.1,4.5,4.6c0.6,1.5,0.9,3.7,0.9,6.8v4.2v13.8c0,1.7,0.9,3.3,2.8,4.8c1.9,1.5,3.7,2.2,5.4,2.2c1.1,0,2.5-0.3,4-1
			c1.5-0.7,2.9-1.6,4.2-2.7V23.9c1.5-0.3,3.1-0.7,4.7-1c1.6-0.3,2.6-0.6,3.1-0.7h2.9v21.4c0,1.8-0.1,4-0.2,6.6
			C447.6,52.7,447.6,55.1,447.5,57.1z M394.3,50.3c0-4.7-1.6-8.6-4.9-11.7c-3.3-3.1-6.4-4.7-9.5-4.7c-0.6,0-1.5,0.1-2.6,0.4
			c-1.1,0.3-2.5,0.8-4.3,1.6v13.2c0,4.4,1.3,7.5,3.8,9.2c2.6,1.7,4.9,2.6,7.1,2.6c3.7,0,6.4-1.2,7.9-3.5
			C393.5,55.1,394.3,52.7,394.3,50.3z M402.1,43.7c0,7-2.1,13.3-6.2,18.8c-4.2,5.5-9,8.3-14.6,8.3c-0.9,0-2.3-0.6-4.1-1.8
			c-1.8-1.2-3.3-2.1-4.5-2.7v24.1h-9.8V62.6c0-4.6,0-8-0.1-10.4c-0.1-2.4-0.2-4.5-0.3-6.4c0-4.9-0.5-8.6-1.4-11.2
			c-1-1.5-2-3.1-3.1-4.7c0-0.7,1.4-1.7,4.1-2.9c2.8-1.2,5.9-2.8,9.3-4.9h1.2v8.2c2.1-0.4,4.4-1.8,6.7-4.4c2.3-2.6,4.2-3.9,5.6-3.9
			c3.7,0,7.4,1.9,11.4,5.8C400.1,31.8,402.1,37.1,402.1,43.7z M317.6,38.5c0-1-0.6-2.2-1.9-3.4c-1.3-1.3-2.7-1.9-4.2-1.9
			c-2,0-3.9,0.6-5.6,1.9c-1.7,1.3-2.6,3.3-2.6,5.9c-0.1,1-0.1,1.8-0.1,2.4c0,0.7,0.1,1.2,0.2,1.6c0.2,0.4,0.5,0.5,1.1,0.5
			c4.2,0,7.1-0.8,8.9-2.3C315.2,41.7,316.6,40.1,317.6,38.5z M330.8,70.6h-11.5c0-5.1-1.2-9.8-3.7-14.1c-2.5-4.3-5.9-6.5-10.3-6.5
			c-1,0-1.7,0.3-2.1,0.9c-0.3,0.6-0.5,1.5-0.5,2.9c0,0.7,0,1.9,0.1,3.7c0.1,1.8,0.1,2.9,0.1,3.4v9.8h-10.3V18c0-1-0.5-2.4-1.5-4.1
			c-1-1.7-2-3.3-3.1-4.9c0-0.3,1.9-1.6,5.8-3.7c3.9-2.2,6.9-3.7,9-4.6c0.1,0.2,0.4,0.2,0.9,0c-0.2,1.2-0.4,2.4-0.6,3.7
			c-0.2,1.3-0.3,2.2-0.3,2.9v23.8c1.5,0.2,3.8-1.2,6.8-4.1c3-3,4.9-4.4,5.5-4.4c3,0,6.1,1.8,9.3,5.4c3.2,3.6,4.8,7.8,4.8,12.7
			c0,1.5-1.3,2.7-4,3.7c-2.7,1-4.2,1.7-4.8,2.1c3.5,4,6.1,8.2,7.8,12.7c1.3,4.3,2.1,6.9,2.5,7.9V70.6z M280.2,58
			c0,0.8,0.8,2,2.4,3.6c1.6,1.6,2.5,2.4,2.5,2.6c0,0.2-1.4,1.3-4.1,3.5c-2.7,2.2-4.2,3.3-4.5,3.3c-1.5-1-3.1-2.1-4.6-3.6
			c-1.5-1.4-2.3-3.3-2.3-5.5l-1.7-0.7c-0.9,0.8-3,2.5-6.5,5.1c-3.4,2.6-5.3,3.9-5.6,3.9c-3.3,0-6.8-2.2-10.6-6.5
			c-3.7-4.3-5.6-8.9-5.6-13.9c0-3.7,0.7-6.8,2.1-9.5c1.4-2.7,2.9-4.9,4.5-6.5c1.6-1.7,4.8-4.4,9.5-8.2c4.7-3.8,7.4-5.7,8.1-5.7
			l10.4,5.8c2.1,1.1,4.3,2.3,6.5,3.4c2,1.3,3,2.2,3,2.8c0,0.6-0.6,1.5-1.9,2.6c-1.3,1.1-1.9,2.3-1.9,3.6v13.3
			c-0.2,1.1-0.3,2.2-0.5,3.3c-0.2,1.1-0.2,2-0.2,2.5c0,0.8,0.1,1.2,0.4,1.2c0.1,0,0.2-0.1,0.4-0.3C280,58.3,280.1,58.1,280.2,58z
			 M268.7,53.8V37.2c-1.4-1.5-3.1-2.7-4.9-3.7c-1.9-1-3.6-1.8-5.1-2.6c-2.1,0-4,1.8-5.7,5.5c-1.7,3.7-2.6,6.4-2.6,8.2
			c0,3.8,1.3,7,3.8,9.7c2.5,2.7,4.9,4,7,4c2.5,0,4.4-0.5,5.7-1.6C268.1,55.7,268.7,54.7,268.7,53.8z M227.3,45.6
			c0-3-0.9-5.5-2.7-7.8c-1.8-2.2-4.1-3.4-6.9-3.4c-1.1,0-2.1,0.2-3.1,0.5c-1,0.3-1.9,0.6-2.7,0.8V37l9.5,23.7
			c1.8-2.8,3.3-5.4,4.3-7.8C226.8,50.4,227.3,48,227.3,45.6z M235.6,38.6c0,3.2-0.5,5.9-1.5,8.2c-1,2.3-2.4,4.9-4.2,7.6
			c-1.8,2.7-3.5,4.9-5,6.6c-1.5,1.7-3.1,3.5-4.8,5.3c-0.7,1.2-1.5,2.5-2.4,3.7c-0.9,1.2-1.9,1.8-2.9,1.8c-2.2,0-4.8-5.1-7.9-15.2
			c-3-10.1-5.6-17.3-7.7-21.5c-2.1-4.2-4.9-7.4-8.5-9.3v-2.6h14.5c0.9,1.5,1.8,3.2,2.8,5.1c0.9,1.9,1.7,3.1,2.4,3.5
			c2-2,4.1-4.1,6.1-6.4c2.1-2.3,3.6-3.4,4.5-3.4c2.7,0,5.8,1.4,9.3,4.2C233.8,29.1,235.6,33.2,235.6,38.6z M179.8,51.8
			c0-3.5-1.8-7.3-5.4-11.4c-3.6-4.1-7.9-6.1-13-6.1c-2.3,0-4.5,0.7-6.5,2.3c-2,1.5-2.9,3.3-2.9,5.5c0,3.3,1.9,6.9,5.6,11
			c3.7,4.1,7.9,6.1,12.5,6.1c3,0,5.4-0.5,7.1-1.6C178.9,56.4,179.8,54.5,179.8,51.8z M185.9,49.3c0,4.5-1.6,8.3-4.7,11.6
			c-3.1,3.3-6.5,5.8-10.2,7.7c-3.7,1.9-5.8,2.8-6.3,2.8c-4.2,0-8.4-2.9-12.6-8.7c-4.2-5.8-6.3-11.6-6.3-17.5c0-4.7,1.6-8.8,4.9-12.2
			c3.2-3.4,6.7-6,10.6-7.9c3.8-1.9,6-2.8,6.6-2.8c3.8,0,7.8,2.7,11.9,8.1C183.9,35.9,185.9,42.2,185.9,49.3z M142.2,65.1
			c0,0.4-1.2,1.4-3.7,3.2c-2.5,1.7-4,2.6-4.5,2.6c-0.5,0-2-1.3-4.6-3.8c-2.6-2.5-3.9-4.1-3.9-4.9V18.5c0-2.1-0.3-3.9-1-5.5
			c-0.7-1.5-1.7-3.1-3.1-4.7V7l13.1-7h1.7v53.1c0,4,1,6.8,3,8.4C141.1,63.1,142.2,64.3,142.2,65.1z M118.2,47.2
			c0,6.1-2.3,11.7-7,16.8c-4.7,5.2-11.4,7.8-20,7.8c-6.7,0-12.2-1.7-16.5-5c-4.3-3.3-7.7-7.4-10.2-12.3c-1.3-2.7-2.5-5.5-3.7-8.3
			v-4.1c1.9,0.9,4.4,1.8,7.5,2.9c3.1,1.1,5.4,1.8,6.8,2.1c-0.2,1.1-0.6,2.4-1.2,3.9c-0.5,1.5-0.8,2.4-0.8,2.6c0,3,1.8,5.9,5.3,8.8
			c3.5,2.8,7.8,4.2,12.8,4.2c4.4,0,8.1-1.5,11.1-4.5c3-3,4.5-6.6,4.5-11c0-3.8-0.7-6.6-2.1-8.6c-1.4-2-3.7-3-7-3
			c-0.9,0-4.2,0.6-9.9,1.7c-5.7,1.1-9.5,1.7-11.4,1.7c-3.2,0-5.9-2.5-8.1-7.6c-2.2-5.1-3.3-9.6-3.3-13.7c0-6,2.4-11,7.1-15.2
			c4.8-4.1,10.3-6.2,16.6-6.2c5.1,0,10.1,1.6,15,4.9c4.9,3.3,8.2,6.8,9.9,10.7c-1,0.3-2.5,0.8-4.4,1.2c-1.9,0.5-3.3,0.9-4.2,1.1
			h-3.2c-0.9-5-2.6-8.4-5.2-10.3c-2.6-1.9-5.5-2.8-8.8-2.8c-4.1,0-7.3,1.2-9.6,3.5c-2.3,2.3-3.4,5.3-3.4,8.8c0,2.8,0.9,5.4,2.8,7.9
			c1.9,2.4,4.5,3.6,7.7,3.6l23.8-4.1c1.8,1.2,3.7,3.8,5.9,7.9C117.2,36.9,118.2,41.7,118.2,47.2z M33.2,59.3l9.6,11l8.2-11l-7.5-9.6
			L33.2,59.3z M12.2,35.2H13v3.5l3,0.1v2.4h-3v1.3h3.7v2.4h-3.6v7.3l-2.5-0.1V45H7v-2.6l3.5,0.1v-1.2H7.7v-2.5h3v-3.6H12.2z
			 M18.2,54.9V5.7h-0.5L0,16.9c1,2,2.4,4.3,4.1,6.9c1.2,3.4,1.9,10.1,2,20c-0.1,6.1-0.4,10.8-0.8,14C4.9,61,4,65.2,2.5,70.4h17.1
			L18.2,54.9z"/>
	</g>
	<rect y="100.4" class="st0" width="498.9" height="43"/>
	<g>
		<path class="st1" d="M10.7,113.7h3.9l8.9,11.7v-11.7h4.1v19H24l-9.2-12.1v12.1h-4.1V113.7z"/>
		<path class="st1" d="M32.3,113.7h4.2v19h-4.2V113.7z"/>
		<path class="st1" d="M41.3,113.7h14.3v3.7H45.4v3.9h9v3.7h-9v4h10.3v3.7H41.3V113.7z"/>
		<path class="st1" d="M65.7,130.1l2.6-2.9c1.1,1.2,2.1,1.9,3.5,1.9c1.6,0,2.6-0.9,2.6-3.1v-12.2h4.3v12.4c0,2.3-0.7,3.9-1.8,5.1
			c-1.2,1.2-2.9,1.8-4.9,1.8C68.9,133,67,131.7,65.7,130.1z"/>
		<path class="st1" d="M82.9,113.7h14.3v3.7H87v3.9h9v3.7h-9v4h10.3v3.7H82.9V113.7z"/>
		<path class="st1" d="M109.4,113.7h4.2v19h-4.2V113.7z"/>
		<path class="st1" d="M118.3,113.7h8.8c2.2,0,3.9,0.6,5,1.7c0.9,0.9,1.3,1.9,1.3,3.2v0.1c0,2.1-1.1,3.3-2.5,4.1
			c2.2,0.8,3.6,2.1,3.6,4.7v0.1c0,3.5-2.8,5.2-7.1,5.2h-9V113.7z M129.2,119.3c0-1.2-1-2-2.7-2h-4.1v4h3.9
			C128.1,121.4,129.2,120.8,129.2,119.3L129.2,119.3z M127.2,124.9h-4.8v4.2h5c1.8,0,3-0.7,3-2.1v-0.1
			C130.3,125.7,129.3,124.9,127.2,124.9z"/>
		<path class="st1" d="M144.4,113.6h3.9l8.1,19.1H152l-1.7-4.3h-8l-1.7,4.3h-4.3L144.4,113.6z M148.8,124.8l-2.5-6.2l-2.5,6.2H148.8
			z"/>
		<path class="st1" d="M167.4,113.7h7.8c4.5,0,7.3,2.7,7.3,6.6v0.1c0,4.4-3.4,6.7-7.7,6.7h-3.2v5.7h-4.2V113.7z M174.9,123.3
			c2.1,0,3.3-1.2,3.3-2.9v-0.1c0-1.9-1.3-2.9-3.4-2.9h-3.2v5.8H174.9z"/>
		<path class="st1" d="M185.3,124.6v-10.9h4.2v10.7c0,3.1,1.5,4.7,4.1,4.7c2.6,0,4.1-1.5,4.1-4.6v-10.9h4.2v10.7
			c0,5.8-3.2,8.6-8.3,8.6C188.4,133,185.3,130.2,185.3,124.6z"/>
		<path class="st1" d="M206.1,113.7h8.8c2.2,0,3.9,0.6,5,1.7c0.9,0.9,1.3,1.9,1.3,3.2v0.1c0,2.1-1.1,3.3-2.5,4.1
			c2.2,0.8,3.6,2.1,3.6,4.7v0.1c0,3.5-2.8,5.2-7.1,5.2h-9V113.7z M217,119.3c0-1.2-1-2-2.7-2h-4.1v4h3.9
			C215.8,121.4,217,120.8,217,119.3L217,119.3z M215,124.9h-4.8v4.2h5c1.8,0,3-0.7,3-2.1v-0.1C218.1,125.7,217.1,124.9,215,124.9z"
			/>
		<path class="st1" d="M224.1,135.4c1.9-0.2,2.8-1.1,2.7-2.7H225v-4.3h4.4v3.7c0,3.6-1.8,5-5,5.1L224.1,135.4z"/>
		<path class="st1" d="M239.6,130.1l2.6-2.9c1.1,1.2,2.1,1.9,3.5,1.9c1.6,0,2.6-0.9,2.6-3.1v-12.2h4.3v12.4c0,2.3-0.7,3.9-1.8,5.1
			c-1.2,1.2-2.9,1.8-4.9,1.8C242.9,133,240.9,131.7,239.6,130.1z"/>
		<path class="st1" d="M256.8,113.7h14.3v3.7H261v3.9h9v3.7h-9v4h10.3v3.7h-14.5V113.7z"/>
		<path class="st1" d="M287.6,117.6h-5.8v-3.9h15.7v3.9h-5.8v15.1h-4.2V117.6z"/>
		<path class="st1" d="M299.1,123.3L299.1,123.3c0-5.5,4.3-9.9,10.1-9.9c5.9,0,10.1,4.4,10.1,9.8v0.1c0,5.4-4.3,9.8-10.1,9.8
			C303.3,133,299.1,128.7,299.1,123.3z M314.9,123.3L314.9,123.3c0-3.3-2.4-6-5.8-6c-3.4,0-5.7,2.7-5.7,5.9v0.1c0,3.3,2.4,6,5.8,6
			C312.6,129.2,314.9,126.5,314.9,123.3z"/>
		<path class="st1" d="M331.3,113.7h4.2v19h-4.2V113.7z"/>
		<path class="st1" d="M340.2,113.7h3.9l8.9,11.7v-11.7h4.1v19h-3.6l-9.2-12.1v12.1h-4.1V113.7z"/>
		<path class="st1" d="M360.3,129.9l2.5-3c1.7,1.4,3.5,2.3,5.7,2.3c1.7,0,2.7-0.7,2.7-1.8v-0.1c0-1.1-0.7-1.6-3.8-2.4
			c-3.8-1-6.3-2-6.3-5.8v-0.1c0-3.4,2.8-5.7,6.6-5.7c2.8,0,5.1,0.9,7.1,2.4l-2.2,3.1c-1.7-1.2-3.3-1.9-4.9-1.9
			c-1.6,0-2.4,0.7-2.4,1.7v0.1c0,1.2,0.8,1.7,4.1,2.5c3.9,1,6,2.4,6,5.7v0.1c0,3.8-2.9,5.9-7,5.9C365.5,133,362.6,132,360.3,129.9z
			 M370.1,112h-3.9l-3.5-4h3.3l2.1,1.5l2.1-1.5h3.3L370.1,112z"/>
		<path class="st1" d="M383,117.6h-5.8v-3.9H393v3.9h-5.8v15.1H383V117.6z"/>
		<path class="st1" d="M396.4,113.7h4.2v19h-4.2V113.7z"/>
		<path class="st1" d="M409.7,117.6h-5.8v-3.9h15.7v3.9h-5.8v15.1h-4.2V117.6z"/>
		<path class="st1" d="M422.6,124.6v-10.9h4.2v10.7c0,3.1,1.5,4.7,4.1,4.7c2.6,0,4.1-1.5,4.1-4.6v-10.9h4.2v10.7
			c0,5.8-3.2,8.6-8.3,8.6C425.7,133,422.6,130.2,422.6,124.6z M432.4,108l3.6,1.5l-3.7,2.7h-3.1L432.4,108z"/>
		<path class="st1" d="M442.5,123.3L442.5,123.3c0-5.5,4.1-9.9,9.9-9.9c3.6,0,5.7,1.2,7.5,2.9l-2.7,3.1c-1.5-1.3-3-2.1-4.9-2.1
			c-3.2,0-5.5,2.7-5.5,5.9v0.1c0,3.3,2.3,6,5.5,6c2.2,0,3.5-0.9,5-2.2l2.7,2.7c-2,2.1-4.1,3.4-7.8,3.4
			C446.7,133,442.5,128.7,442.5,123.3z"/>
		<path class="st1" d="M463.6,113.7h4.2v19h-4.2V113.7z"/>
		<path class="st1" d="M479,113.6h3.9l8.1,19.1h-4.4l-1.7-4.3h-8l-1.7,4.3h-4.3L479,113.6z M483.4,124.8l-2.5-6.2l-2.5,6.2H483.4z"
			/>
	</g>
</g>
</svg>
