<?xml version="1.0" encoding="utf-8"?>
<!-- Generator: Adobe Illustrator 21.0.2, SVG Export Plug-In . SVG Version: 6.00 Build 0)  -->
<svg version="1.1" id="Layer_1" xmlns="http://www.w3.org/2000/svg" xmlns:xlink="http://www.w3.org/1999/xlink" x="0px" y="0px"
	 viewBox="0 0 42.5 45.5" style="enable-background:new 0 0 42.5 45.5;" xml:space="preserve">
<style type="text/css">
	.st0{fill:none;stroke:#FFFFFF;stroke-width:2;stroke-linecap:round;stroke-linejoin:round;stroke-miterlimit:10;}
</style>
<path class="st0" d="M4.7,37.8c9.6,4.2,21.2,2.3,29.1-5.5c7.9-7.9,9.7-19.5,5.5-29.1C29.7-1,18.1,0.8,10.2,8.7
	C2.4,16.6,0.5,28.2,4.7,37.8z"/>
<path class="st0" d="M4.9,38c0,0-5.4,1.6-3.4,6.5"/>
<path class="st0" d="M36.1,6.4c0,0-14.7,10.2-28.2,28.3"/>
<line class="st0" x1="13.7" y1="28.2" x2="22.3" y2="31.5"/>
<line class="st0" x1="20.7" y1="21.2" x2="28.5" y2="23.9"/>
<line class="st0" x1="27.1" y1="14.4" x2="32" y2="16.5"/>
<line class="st0" x1="26.5" y1="14" x2="24.5" y2="9"/>
<line class="st0" x1="20.5" y1="21" x2="17.5" y2="14"/>
<line class="st0" x1="13.5" y1="28" x2="10.5" y2="21"/>
</svg>
