<?xml version="1.0" encoding="utf-8"?>
<!-- Generator: Adobe Illustrator 21.0.2, SVG Export Plug-In . SVG Version: 6.00 Build 0)  -->
<svg version="1.1" id="Layer_1" xmlns="http://www.w3.org/2000/svg" xmlns:xlink="http://www.w3.org/1999/xlink" x="0px" y="0px"
	 viewBox="0 0 57.9 56.2" style="enable-background:new 0 0 57.9 56.2;" xml:space="preserve">
<style type="text/css">
	.st0{fill:none;stroke:#FFFFFF;stroke-width:2;stroke-linecap:square;stroke-linejoin:round;stroke-miterlimit:10;}
</style>
<path class="st0" d="M13.8,11.6c0,0-0.2,30.8,29.1,31.9c12.5,0.5,12.5-10.2,6.9-10.2s-16.2,0-22.7-11.1c-6.5-11.1-1.4-11.1-6-15.7
	C16.5,1.8,13.8,6,13.8,11.6z"/>
<path class="st0" d="M29.2,35.5l-7.1,7.1c-2.3,2.3-6.1,2.3-8.5,0c-2.3-2.3-2.3-6.1,0-8.5l7.1-7.1"/>
<line class="st0" x1="12.9" y1="40.5" x2="23.5" y2="29.9"/>
<line class="st0" x1="15.7" y1="43.3" x2="26.4" y2="32.7"/>
<line class="st0" x1="13.6" y1="42.6" x2="11.5" y2="44.7"/>
<path class="st0" d="M8.7,44.7c0.8-0.8,2-0.8,2.8,0c0.8,0.8,0.8,2,0,2.8l-7.1,7.1c-0.8,0.8-2,0.8-2.8,0c-0.8-0.8-0.8-2,0-2.8
	L8.7,44.7z"/>
<path class="st0" d="M16.7,4.5l-3.5-3c0,0,3,0,5-0.5s0,3,0,3"/>
<path class="st0" d="M53.2,35c0,0,1.5-1.5,2-4s2.5,7,1.5,8s-3-1-3-1"/>
</svg>
