<?xml version="1.0" encoding="utf-8"?>
<!-- Generator: Adobe Illustrator 21.0.2, SVG Export Plug-In . SVG Version: 6.00 Build 0)  -->
<svg version="1.1" id="Layer_1" xmlns="http://www.w3.org/2000/svg" xmlns:xlink="http://www.w3.org/1999/xlink" x="0px" y="0px"
	 viewBox="0 0 40 55" style="enable-background:new 0 0 40 55;" xml:space="preserve">
<style type="text/css">
	
		.st0{clip-path:url(#SVGID_2_);fill:none;stroke:#FFFFFF;stroke-width:4;stroke-linecap:round;stroke-linejoin:round;stroke-miterlimit:10;}
	
		.st1{clip-path:url(#SVGID_4_);fill:none;stroke:#FFFFFF;stroke-width:4;stroke-linecap:round;stroke-linejoin:round;stroke-miterlimit:10;}
	
		.st2{clip-path:url(#SVGID_6_);fill:none;stroke:#FFFFFF;stroke-width:4;stroke-linecap:round;stroke-linejoin:round;stroke-miterlimit:10;}
	
		.st3{clip-path:url(#SVGID_8_);fill:none;stroke:#FFFFFF;stroke-width:4;stroke-linecap:round;stroke-linejoin:round;stroke-miterlimit:10;}
	
		.st4{clip-path:url(#SVGID_10_);fill:none;stroke:#FFFFFF;stroke-width:4;stroke-linecap:round;stroke-linejoin:round;stroke-miterlimit:10;}
	.st5{fill:none;stroke:#FFFFFF;stroke-width:2;stroke-linecap:square;stroke-linejoin:round;stroke-miterlimit:10;}
</style>
<g>
	<defs>
		<rect id="SVGID_1_" x="16" y="5" width="24" height="50"/>
	</defs>
	<clipPath id="SVGID_2_">
		<use xlink:href="#SVGID_1_"  style="overflow:visible;"/>
	</clipPath>
	<rect x="16" y="5" class="st0" width="24" height="50"/>
</g>
<g>
	<defs>
		<polygon id="SVGID_3_" points="0,0 18,5 18,55 0,50 		"/>
	</defs>
	<clipPath id="SVGID_4_">
		<use xlink:href="#SVGID_3_"  style="overflow:visible;"/>
	</clipPath>
	<polygon class="st1" points="0,0 18,5 18,55 0,50 	"/>
</g>
<g>
	<defs>
		<rect id="SVGID_5_" x="20" y="10" width="8" height="8"/>
	</defs>
	<clipPath id="SVGID_6_">
		<use xlink:href="#SVGID_5_"  style="overflow:visible;"/>
	</clipPath>
	<rect x="20" y="10" class="st2" width="8" height="8"/>
</g>
<g>
	<defs>
		<rect id="SVGID_7_" x="20" y="22" width="8" height="8"/>
	</defs>
	<clipPath id="SVGID_8_">
		<use xlink:href="#SVGID_7_"  style="overflow:visible;"/>
	</clipPath>
	<rect x="20" y="22" class="st3" width="8" height="8"/>
</g>
<g>
	<defs>
		<rect id="SVGID_9_" x="20" y="34" width="8" height="8"/>
	</defs>
	<clipPath id="SVGID_10_">
		<use xlink:href="#SVGID_9_"  style="overflow:visible;"/>
	</clipPath>
	<rect x="20" y="34" class="st4" width="8" height="8"/>
</g>
<line class="st5" x1="30" y1="11" x2="35.1" y2="11"/>
<line class="st5" x1="30" y1="23" x2="35.1" y2="23"/>
<line class="st5" x1="30" y1="35" x2="35.1" y2="35"/>
<line class="st5" x1="21" y1="46" x2="35" y2="46"/>
<line class="st5" x1="23" y1="50" x2="33" y2="50"/>
</svg>
